<?xml version="1.0" encoding="utf-8"?>
<!-- Generator: Adobe Illustrator 26.0.1, SVG Export Plug-In . SVG Version: 6.00 Build 0)  -->
<svg version="1.1" id="Layer_1" xmlns="http://www.w3.org/2000/svg" xmlns:xlink="http://www.w3.org/1999/xlink" x="0px" y="0px"
	 viewBox="0 0 346 120" style="enable-background:new 0 0 346 120;" xml:space="preserve">
<style type="text/css">
	.st0{stroke:#000000;stroke-miterlimit:10;}
	.st1{fill:none;stroke:#000000;stroke-miterlimit:10;}
	.st2{fill:none;stroke:#000000;stroke-width:6;stroke-linecap:round;}
</style>
<g id="Artboard">
	<g id="openmbee-logo">
		<path id="Shape" class="st0" d="M109.3,60.1c0-2.3,0.4-4.6,1.2-6.7c0.8-2,1.9-3.8,3.4-5.3c1.5-1.5,3.2-2.7,5.2-3.5
			c2.1-0.9,4.4-1.3,6.7-1.3c2.3,0,4.5,0.4,6.7,1.3c2,0.8,3.7,2,5.2,3.5c1.5,1.5,2.6,3.3,3.4,5.3c0.8,2.1,1.2,4.4,1.2,6.7
			c0,2.3-0.4,4.6-1.2,6.8c-0.8,2-1.9,3.8-3.4,5.3c-1.5,1.5-3.3,2.7-5.2,3.5c-2.1,0.8-4.4,1.2-6.7,1.2c-2.3,0-4.6-0.4-6.7-1.2
			c-1.9-0.8-3.7-2-5.2-3.5c-1.5-1.5-2.6-3.3-3.4-5.3C109.7,64.7,109.3,62.4,109.3,60.1z M112.3,60.1c0,1.9,0.3,3.8,0.9,5.5
			c0.6,1.7,1.5,3.2,2.7,4.5c1.2,1.3,2.6,2.3,4.2,3c1.8,0.7,3.7,1.1,5.6,1.1c1.9,0,3.8-0.4,5.6-1.1c1.6-0.7,3.1-1.7,4.3-3
			c1.2-1.3,2.1-2.8,2.7-4.5c1.3-3.6,1.3-7.5,0-11.1c-0.6-1.6-1.5-3.2-2.7-4.5c-1.2-1.3-2.7-2.3-4.3-3c-1.8-0.7-3.7-1.1-5.6-1
			c-1.9,0-3.8,0.3-5.6,1.1c-1.6,0.7-3,1.7-4.2,3c-1.2,1.3-2.1,2.8-2.7,4.5C112.6,56.3,112.2,58.2,112.3,60.1L112.3,60.1z"/>
		<path id="Shape-2" class="st0" d="M147.5,55.2h2.7v3.7h0.1c0.4-0.7,0.9-1.3,1.6-1.9c0.6-0.5,1.3-1,2-1.3c0.7-0.4,1.5-0.6,2.3-0.8
			c0.8-0.2,1.6-0.3,2.4-0.3c1.5,0,3,0.3,4.4,0.8c2.6,1.1,4.7,3.1,5.8,5.8c0.6,1.4,0.8,2.9,0.8,4.4c0,1.5-0.3,3-0.8,4.4
			c-0.5,1.3-1.3,2.5-2.3,3.5c-1,1-2.2,1.7-3.5,2.2c-1.4,0.6-2.9,0.8-4.4,0.8c-0.8,0-1.6-0.1-2.4-0.3c-0.8-0.1-1.6-0.4-2.3-0.7
			c-0.7-0.4-1.4-0.8-2-1.3c-0.6-0.5-1.2-1.2-1.6-1.9h-0.1v13.9h-2.7L147.5,55.2z M150,65.6c0,1.1,0.2,2.3,0.7,3.3
			c0.4,1,1.1,1.9,1.9,2.7c0.8,0.8,1.7,1.4,2.7,1.8c1.1,0.5,2.2,0.7,3.4,0.7c1.2,0,2.3-0.2,3.4-0.7c1-0.4,1.9-1,2.6-1.8
			c0.7-0.8,1.3-1.7,1.6-2.7c0.4-1.1,0.6-2.2,0.6-3.3c0-1.1-0.2-2.2-0.6-3.3c-0.3-1-0.9-1.9-1.6-2.7c-0.7-0.8-1.6-1.4-2.6-1.8
			c-1.1-0.5-2.2-0.7-3.4-0.7c-2.3,0-4.5,0.9-6.2,2.5c-0.8,0.8-1.4,1.7-1.9,2.7C150.2,63.3,150,64.5,150,65.6z"/>
		<path id="Shape-3" class="st0" d="M194,72.1c-0.9,1.5-2.3,2.7-3.9,3.4c-1.6,0.7-3.3,1-5.1,1c-1.5,0-2.9-0.3-4.3-0.8
			c-1.3-0.5-2.4-1.3-3.3-2.2c-0.9-1-1.7-2.2-2.2-3.4c-0.5-1.4-0.7-2.9-0.7-4.4c0-1.5,0.2-2.9,0.8-4.3c0.5-1.3,1.2-2.4,2.2-3.4
			c0.9-1,2-1.8,3.3-2.3c1.3-0.6,2.7-0.9,4.2-0.9c1.4,0,2.9,0.3,4.2,0.9c1.2,0.5,2.2,1.2,3.1,2.2c0.8,0.9,1.5,1.9,1.9,3.1
			c0.4,1.1,0.6,2.3,0.6,3.6v1.9h-17.4c0,0.7,0.1,1.5,0.3,2.2c0.3,0.9,0.7,1.8,1.3,2.5c0.6,0.9,1.4,1.6,2.4,2.2
			c1.2,0.6,2.6,1,3.9,0.9c1.4,0,2.8-0.4,4-1c1.2-0.6,2.3-1.5,3-2.7L194,72.1z M191.9,63.8c0-0.9-0.2-1.8-0.6-2.6
			c-0.4-0.8-0.9-1.5-1.5-2.1c-0.7-0.6-1.4-1.2-2.3-1.5c-0.9-0.4-1.8-0.5-2.8-0.5c-1.3,0-2.6,0.3-3.7,0.9c-1.6,1-2.9,2.5-3.5,4.4
			c-0.2,0.5-0.3,1-0.4,1.5L191.9,63.8z"/>
		<path id="Path" class="st0" d="M200.6,61c0-0.4,0-0.9,0-1.4l-0.1-1.7c0-0.6,0-1.1,0-1.6s0-0.9,0-1.2h2.7c0,0.8,0,1.5,0,2.2
			c0,0.5,0,0.9,0.1,1.4h0.1c0.6-1.2,1.5-2.2,2.7-2.9c1.3-0.9,2.8-1.3,4.4-1.3c1.4-0.1,2.7,0.2,4,0.8c1,0.4,1.8,1.1,2.4,2
			c0.6,0.8,1,1.8,1.2,2.8c0.2,1.1,0.4,2.2,0.4,3.3V76h-2.7V63.8c0-0.8-0.1-1.6-0.2-2.4c-0.1-0.8-0.4-1.5-0.8-2.2
			c-0.4-0.6-0.9-1.2-1.6-1.5c-0.8-0.4-1.7-0.6-2.6-0.6c-1,0-1.9,0.2-2.8,0.5c-0.9,0.3-1.7,0.9-2.3,1.6c-0.7,0.8-1.2,1.7-1.5,2.7
			c-0.4,1.2-0.6,2.5-0.5,3.7V76h-2.7L200.6,61z"/>
		<polygon id="Path-2" class="st1" points="225.7,44.1 234.4,44.1 242.9,66.4 251.5,44.1 260,44.1 260,76 254.6,76 254.6,49.5 
			254.5,49.5 244.9,76 240.9,76 231.2,49.5 231.1,49.5 231.1,76 225.7,76 		"/>
		<path id="Shape-4" class="st1" d="M267.3,44.1h12.4c1.2,0,2.4,0.2,3.6,0.5c1.1,0.2,2.2,0.7,3.1,1.4c0.9,0.6,1.7,1.5,2.2,2.5
			c0.6,1.1,0.9,2.4,0.9,3.7c0.1,1.6-0.5,3.2-1.5,4.5c-1.1,1.2-2.5,2.1-4,2.5v0.1c1,0.1,1.9,0.4,2.7,0.8c0.8,0.4,1.6,1,2.2,1.7
			c0.6,0.7,1.1,1.5,1.4,2.3c0.4,0.9,0.5,1.9,0.5,2.8c0.2,2.9-1.3,5.7-3.8,7.2c-1.2,0.7-2.5,1.2-3.9,1.5c-1.5,0.3-2.9,0.5-4.4,0.4
			h-11.5V44.1z M272.9,57.1h5.2c1.5,0.1,3-0.3,4.2-1.1c0.9-0.7,1.5-1.8,1.4-2.9c0.1-1.2-0.5-2.4-1.5-3.1c-1.4-0.8-3.1-1.1-4.7-1
			h-4.7V57.1z M272.9,71.1h5.2c0.8,0,1.5,0,2.3-0.1c0.8-0.1,1.6-0.3,2.3-0.6c0.7-0.3,1.3-0.8,1.7-1.4c0.5-0.7,0.7-1.6,0.7-2.5
			c0.1-1.4-0.5-2.7-1.7-3.5c-1.6-0.8-3.3-1.1-5.1-1h-5.5L272.9,71.1z"/>
		<polygon id="Path-3" class="st1" points="296.4,44.1 317.5,44.1 317.5,49.3 302.1,49.3 302.1,57.1 316.7,57.1 316.7,62.2 
			302.1,62.2 302.1,70.9 318.4,70.9 318.4,76 296.4,76 		"/>
		<polygon id="Path-4" class="st1" points="324,44.1 345.1,44.1 345.1,49.3 329.6,49.3 329.6,57.1 344.2,57.1 344.2,62.2 
			329.6,62.2 329.6,70.9 345.9,70.9 345.9,76 324,76 		"/>
		<path id="Shape-5" class="st2" d="M31.5,27.9c12.4-11,30.7-12.1,44.5-2.8 M20.4,46.5C16.4,64,26,81.8,42.9,87.8 M68,87.8
			c14-5.1,23.4-18.4,23.4-33.4c0-1.2-0.1-2.4-0.2-3.5"/>
		<path id="Rectangle" d="M47.8,50.7l25.7-14.8c1-0.6,2.2-0.2,2.7,0.7l5,8.7c0.6,1,0.2,2.2-0.7,2.7L54.9,62.9
			c-1,0.6-2.2,0.2-2.7-0.7l-5-8.7C46.6,52.4,46.9,51.2,47.8,50.7z"/>
		<path id="Rectangle-2" d="M90.7,25.8L116.4,11c1-0.6,2.2-0.2,2.7,0.7l5,8.7c0.6,1,0.2,2.2-0.7,2.7L97.7,38c-1,0.6-2.2,0.2-2.7-0.7
			l-5-8.7C89.4,27.6,89.7,26.4,90.7,25.8z"/>
		<path id="Rectangle-3" d="M82.4,33.5l0.8-0.5c1-0.6,2.2-0.2,2.7,0.7l2.9,5c0.6,1,0.2,2.2-0.7,2.7l-0.8,0.5c-1,0.6-2.2,0.2-2.7-0.7
			l-2.9-5C81.1,35.2,81.4,34,82.4,33.5z"/>
		<path id="Rectangle-4" d="M79.7,30.8l3.5-2c1-0.6,2.2-0.2,2.7,0.7l6,10.4c0.6,1,0.2,2.2-0.7,2.7l-3.5,2c-1,0.6-2.2,0.2-2.7-0.7
			l-6-10.4C78.4,32.6,78.8,31.4,79.7,30.8z"/>
		<path id="Rectangle-5" d="M1.8,23.5l3.5-1.9c1-0.5,2.2-0.2,2.7,0.8l5.7,10.5c0.5,1,0.2,2.2-0.8,2.7l-3.5,1.9
			c-1,0.5-2.2,0.2-2.7-0.8L1,26.2C0.4,25.2,0.8,24,1.8,23.5z"/>
		<path id="Rectangle-6" d="M14.6,25.6l3.5-1.9c1-0.5,2.2-0.2,2.7,0.8l5.7,10.5c0.5,1,0.2,2.2-0.8,2.7l-3.5,1.9
			c-1,0.5-2.2,0.2-2.7-0.8l-5.7-10.5C13.3,27.4,13.6,26.2,14.6,25.6z"/>
		<path id="Rectangle-7" d="M49.5,87.8h12c1.1,0,2,0.9,2,2v4c0,1.1-0.9,2-2,2h-12c-1.1,0-2-0.9-2-2v-4
			C47.5,88.7,48.4,87.8,49.5,87.8z"/>
		<path id="Rectangle-8" d="M49.5,97.9h12c1.1,0,2,0.9,2,2v4c0,1.1-0.9,2-2,2h-12c-1.1,0-2-0.9-2-2v-4
			C47.5,98.8,48.4,97.9,49.5,97.9z"/>
	</g>
</g>
</svg>
