<svg id="Layer_1" data-name="Layer 1" xmlns="http://www.w3.org/2000/svg" viewBox="0 0 346 120"><defs><style>.cls-1{fill:#ffffff;}.cls-2{fill:none;stroke:#ffffff;stroke-linecap:round;stroke-width:6px;}</style></defs><title>sdfArtboard 1</title><g id="Artboard"><g id="openmbee-logo"><path id="Shape" class="cls-1" d="M109.29,60.06a18,18,0,0,1,1.22-6.7,15.71,15.71,0,0,1,3.38-5.27,15.21,15.21,0,0,1,5.17-3.51,17.44,17.44,0,0,1,6.71-1.26,17.11,17.11,0,0,1,6.66,1.26,15.11,15.11,0,0,1,5.22,3.51A15.71,15.71,0,0,1,141,53.35a18,18,0,0,1,1.21,6.7A18.36,18.36,0,0,1,141,66.81a16.22,16.22,0,0,1-3.37,5.31,15.43,15.43,0,0,1-5.22,3.47,17.66,17.66,0,0,1-6.66,1.21,18,18,0,0,1-6.71-1.21,15.53,15.53,0,0,1-5.17-3.47,16.22,16.22,0,0,1-3.37-5.31A18.36,18.36,0,0,1,109.29,60.06Zm3,0a15.89,15.89,0,0,0,.94,5.53,13.14,13.14,0,0,0,2.7,4.46,12.54,12.54,0,0,0,4.23,3,14.14,14.14,0,0,0,5.63,1.08A13.82,13.82,0,0,0,131.35,73a12.43,12.43,0,0,0,4.27-3,13.14,13.14,0,0,0,2.7-4.46,16.68,16.68,0,0,0,0-11.07,13.14,13.14,0,0,0-2.7-4.45,12.43,12.43,0,0,0-4.27-3A13.82,13.82,0,0,0,125.76,46a14.14,14.14,0,0,0-5.62,1.08,12.54,12.54,0,0,0-4.23,3,13.14,13.14,0,0,0-2.7,4.45A15.89,15.89,0,0,0,112.26,60.06Z"/><path id="Shape-2" data-name="Shape" class="cls-1" d="M147.54,55.2h2.7v3.65h.09A6.68,6.68,0,0,1,151.91,57a8.63,8.63,0,0,1,2-1.3,9.3,9.3,0,0,1,2.34-.77,11,11,0,0,1,2.38-.27,11.42,11.42,0,0,1,4.37.81,10.44,10.44,0,0,1,5.76,5.76,11.42,11.42,0,0,1,.81,4.36,11.77,11.77,0,0,1-.81,4.41,10.43,10.43,0,0,1-2.29,3.47A10.18,10.18,0,0,1,163,75.72a11.42,11.42,0,0,1-4.37.81,11,11,0,0,1-2.38-.27,10.57,10.57,0,0,1-2.34-.72,11.1,11.1,0,0,1-2-1.31,7.35,7.35,0,0,1-1.57-1.89h-.09V86.25h-2.7ZM150,65.59a8.36,8.36,0,0,0,.68,3.33,8.82,8.82,0,0,0,1.85,2.7,9.08,9.08,0,0,0,2.74,1.8,8.59,8.59,0,0,0,3.42.68,8.38,8.38,0,0,0,3.42-.68,8.11,8.11,0,0,0,2.61-1.8,7.73,7.73,0,0,0,1.62-2.7,9.49,9.49,0,0,0,.58-3.33,9.12,9.12,0,0,0-.58-3.28,7.22,7.22,0,0,0-1.62-2.7,7.78,7.78,0,0,0-2.61-1.84,8.38,8.38,0,0,0-3.42-.68,8.61,8.61,0,0,0-6.16,2.52,8.15,8.15,0,0,0-1.85,2.7A8,8,0,0,0,150,65.59Z"/><path id="Shape-3" data-name="Shape" class="cls-1" d="M194,72.07a9.07,9.07,0,0,1-3.91,3.42,12.23,12.23,0,0,1-5.09,1,11.09,11.09,0,0,1-4.32-.81,9.9,9.9,0,0,1-3.33-2.25A10.56,10.56,0,0,1,175.19,70a13.22,13.22,0,0,1-.72-4.45,11.89,11.89,0,0,1,.76-4.32,10.07,10.07,0,0,1,2.16-3.42,9.7,9.7,0,0,1,3.29-2.29,10,10,0,0,1,4.18-.86,9.65,9.65,0,0,1,4.18.86,8.54,8.54,0,0,1,3.06,2.2,8.92,8.92,0,0,1,1.89,3.1,10.45,10.45,0,0,1,.63,3.56v1.89H177.17a10.14,10.14,0,0,0,.31,2.21A8.15,8.15,0,0,0,178.74,71a7.92,7.92,0,0,0,2.38,2.16,7.64,7.64,0,0,0,3.92.9,8.69,8.69,0,0,0,4-1,7.22,7.22,0,0,0,3-2.7Zm-2.07-8.24a5.94,5.94,0,0,0-.59-2.61,6.27,6.27,0,0,0-1.53-2.12,6.74,6.74,0,0,0-2.29-1.49,7.22,7.22,0,0,0-2.79-.54A7,7,0,0,0,181,58a8.17,8.17,0,0,0-3.51,4.37,5.78,5.78,0,0,0-.36,1.48Z"/><path id="Path" class="cls-1" d="M200.64,61q0-.59,0-1.4l-.09-1.71q0-.86,0-1.58t0-1.17h2.7q0,1.17,0,2.25a7.7,7.7,0,0,0,.13,1.4h.14a7.14,7.14,0,0,1,2.7-2.92,7.76,7.76,0,0,1,4.41-1.26,8.87,8.87,0,0,1,4,.77,6.11,6.11,0,0,1,2.39,2,6.91,6.91,0,0,1,1.21,2.83,15.31,15.31,0,0,1,.36,3.33V76h-2.7V63.75a12.84,12.84,0,0,0-.23-2.43,6.21,6.21,0,0,0-.81-2.16,3.77,3.77,0,0,0-1.57-1.48,5.1,5.1,0,0,0-2.61-.59,7.56,7.56,0,0,0-2.84.54,6,6,0,0,0-2.29,1.58,7.83,7.83,0,0,0-1.53,2.65,11.55,11.55,0,0,0-.54,3.74V76h-2.7Z"/><polygon id="Path-2" data-name="Path" class="cls-1" points="225.74 44.13 234.38 44.13 242.88 66.45 251.48 44.13 260.03 44.13 260.03 75.99 254.63 75.99 254.63 49.53 254.54 49.53 244.86 75.99 240.9 75.99 231.23 49.53 231.14 49.53 231.14 75.99 225.74 75.99 225.74 44.13"/><path id="Shape-4" data-name="Shape" class="cls-1" d="M267.26,44.13h12.42a14.26,14.26,0,0,1,3.56.45,8.37,8.37,0,0,1,3.1,1.4,7.15,7.15,0,0,1,2.25,2.47,7.46,7.46,0,0,1,.86,3.69,6.53,6.53,0,0,1-1.53,4.45,8.51,8.51,0,0,1-4,2.52v.09a7.73,7.73,0,0,1,2.74.85,6.8,6.8,0,0,1,2.21,1.67,7,7,0,0,1,1.39,2.34,7.34,7.34,0,0,1,.54,2.83A7.81,7.81,0,0,1,287,74.05a11.69,11.69,0,0,1-3.87,1.49,21.56,21.56,0,0,1-4.41.45H267.26Zm5.67,13h5.18A6.86,6.86,0,0,0,282.34,56a3.54,3.54,0,0,0,1.44-2.92A3.42,3.42,0,0,0,282.29,50a8.18,8.18,0,0,0-4.68-1h-4.68Zm0,14h5.22a20.83,20.83,0,0,0,2.3-.13,7,7,0,0,0,2.29-.63,4.57,4.57,0,0,0,1.71-1.4,4.25,4.25,0,0,0,.67-2.52,3.74,3.74,0,0,0-1.67-3.51,10.06,10.06,0,0,0-5.08-1h-5.45Z"/><polygon id="Path-3" data-name="Path" class="cls-1" points="296.44 44.13 317.55 44.13 317.55 49.26 302.11 49.26 302.11 57.09 316.74 57.09 316.74 62.22 302.11 62.22 302.11 70.86 318.36 70.86 318.36 75.99 296.44 75.99 296.44 44.13"/><polygon id="Path-4" data-name="Path" class="cls-1" points="323.95 44.13 345.06 44.13 345.06 49.26 329.62 49.26 329.62 57.09 344.25 57.09 344.25 62.22 329.62 62.22 329.62 70.86 345.87 70.86 345.87 75.99 323.95 75.99 323.95 44.13"/><path id="Shape-5" data-name="Shape" class="cls-2" d="M31.46,27.92a36.31,36.31,0,0,1,44.45-2.77M20.36,46.55a35.5,35.5,0,0,0,22.55,41.3m25.11,0A35.65,35.65,0,0,0,91.46,54.47q0-1.8-.18-3.55"/><rect id="Rectangle" class="cls-1" x="47.38" y="42.3" width="33.68" height="14.08" rx="2" ry="2" transform="translate(-16.07 38.72) rotate(-30)"/><rect id="Rectangle-2" data-name="Rectangle" class="cls-1" x="90.23" y="17.45" width="33.68" height="14.08" rx="2" ry="2" transform="translate(2.1 56.82) rotate(-30)"/><rect id="Rectangle-3" data-name="Rectangle" class="cls-1" x="82.75" y="32.58" width="4.9" height="9.8" rx="2" ry="2" transform="translate(-7.32 47.62) rotate(-30)"/><rect id="Rectangle-4" data-name="Rectangle" class="cls-1" x="81.46" y="28.76" width="8" height="16" rx="2" ry="2" transform="translate(-6.93 47.65) rotate(-30)"/><rect id="Rectangle-5" data-name="Rectangle" class="cls-1" x="3.34" y="21.56" width="8" height="16" rx="2" ry="2" transform="translate(-13.26 7.12) rotate(-28.61)"/><rect id="Rectangle-6" data-name="Rectangle" class="cls-1" x="16.19" y="23.71" width="8" height="16" rx="2" ry="2" transform="translate(-12.72 13.54) rotate(-28.61)"/><rect id="Rectangle-7" data-name="Rectangle" class="cls-1" x="47.47" y="87.85" width="16" height="8" rx="2" ry="2"/><rect id="Rectangle-8" data-name="Rectangle" class="cls-1" x="47.47" y="97.92" width="16" height="8" rx="2" ry="2"/></g></g></svg>