<?xml version="1.0" encoding="utf-8"?>
<!-- Generator: Adobe Illustrator 26.0.1, SVG Export Plug-In . SVG Version: 6.00 Build 0)  -->
<svg version="1.1" id="Layer_1" xmlns="http://www.w3.org/2000/svg" xmlns:xlink="http://www.w3.org/1999/xlink" x="0px" y="0px"
	 viewBox="0 0 170 169" style="enable-background:new 0 0 170 169;" xml:space="preserve">
<style type="text/css">
	.st0{fill:none;stroke:#000000;stroke-miterlimit:10;}
	.st1{fill:none;stroke:#000000;stroke-width:10;stroke-linecap:round;}
</style>
<desc>Created with Sketch.</desc>
<g id="Page-1">
	<g id="logo2-copy-2" transform="translate(4.000000, 4.000000)">
		<g id="Triangle">
			<path d="M52.5,104c-1.7,0-3.2-1-3.7-2.6l-14.5-39c-0.8-2.1,0.3-4.4,2.4-5.1c2.1-0.8,4.4,0.3,5.1,2.4l10.8,28.9l10.8-28.9
				c0.8-2.1,3.1-3.1,5.1-2.4c2.1,0.8,3.1,3.1,2.4,5.1l-14.5,39C55.7,103,54.2,104,52.5,104z"/>
		</g>
		<g id="Line-6">
			<path d="M119.1,84.5H95c-2.2,0-4-1.8-4-4s1.8-4,4-4h24.1c2.2,0,4,1.8,4,4S121.3,84.5,119.1,84.5z"/>
			<path class="st0" d="M119.1,84.5H95c-2.2,0-4-1.8-4-4s1.8-4,4-4h24.1c2.2,0,4,1.8,4,4S121.3,84.5,119.1,84.5z"/>
		</g>
		<g id="Rectangle-4">
			<path d="M121,104H95c-2.2,0-4-1.8-4-4V61c0-2.2,1.8-4,4-4h26c2.2,0,4,1.8,4,4s-1.8,4-4,4H99v31h22c2.2,0,4,1.8,4,4
				S123.2,104,121,104z"/>
			<path d="M121,104.5H95c-2.5,0-4.5-2-4.5-4.5V61c0-2.5,2-4.5,4.5-4.5h26c2.5,0,4.5,2,4.5,4.5s-2,4.5-4.5,4.5H99.5v30H121
				c2.5,0,4.5,2,4.5,4.5S123.5,104.5,121,104.5z M95,57.5c-1.9,0-3.5,1.6-3.5,3.5v39c0,1.9,1.6,3.5,3.5,3.5h26
				c1.9,0,3.5-1.6,3.5-3.5s-1.6-3.5-3.5-3.5H98.5v-32H121c1.9,0,3.5-1.6,3.5-3.5s-1.6-3.5-3.5-3.5H95z"/>
		</g>
		<g id="Oval-6">
			<path class="st1" d="M69.1,1.5C30.5,7.2,1,40.5,1,80.6c0,40.1,29.5,73.3,68,79.1 M93,159.7c38.5-5.8,68-39,68-79.1
				c0-40.1-29.5-73.3-68.1-79.1"/>
		</g>
	</g>
</g>
</svg>
