<?xml version="1.0" encoding="UTF-8"?>
<svg width="642px" height="642px" viewBox="0 0 642 642" version="1.1" xmlns="http://www.w3.org/2000/svg" xmlns:xlink="http://www.w3.org/1999/xlink">
    <!-- Generator: Sketch 50.2 (55047) - http://www.bohemiancoding.com/sketch -->
    <title>delete</title>
    <desc>Created with Sketch.</desc>
    <defs></defs>
    <g id="delete" stroke="none" stroke-width="1" fill="none" fill-rule="evenodd">
        <circle id="Oval" fill="#FFB6B6" cx="321" cy="321" r="321"></circle>
        <g id="times-solid" transform="translate(145.000000, 145.000000)" fill="#FFFFFF" fill-rule="nonzero">
            <path d="M242.72,176 L342.79,75.93 C355.07,63.65 355.07,43.74 342.79,31.45 L320.55,9.21 C308.27,-3.07 288.36,-3.07 276.07,9.21 L176,109.28 L75.93,9.21 C63.65,-3.07 43.74,-3.07 31.45,9.21 L9.21,31.45 C-3.07,43.73 -3.07,63.64 9.21,75.93 L109.28,176 L9.21,276.07 C-3.07,288.35 -3.07,308.26 9.21,320.55 L31.45,342.79 C43.73,355.07 63.65,355.07 75.93,342.79 L176,242.72 L276.07,342.79 C288.35,355.07 308.27,355.07 320.55,342.79 L342.79,320.55 C355.07,308.27 355.07,288.36 342.79,276.07 L242.72,176 Z" id="Shape"></path>
        </g>
    </g>
</svg>