<?xml version="1.0" encoding="UTF-8"?>
<svg width="170px" height="169px" viewBox="0 0 170 169" version="1.1" xmlns="http://www.w3.org/2000/svg" xmlns:xlink="http://www.w3.org/1999/xlink">
    <!-- Generator: Sketch 50.2 (55047) - http://www.bohemiancoding.com/sketch -->
    <title>logo2 copy 2</title>
    <desc>Created with Sketch.</desc>
    <defs></defs>
    <g id="Page-1" stroke="none" stroke-width="1" fill="none" fill-rule="evenodd" stroke-linecap="round">
        <g id="logo2-copy-2" transform="translate(4.000000, 4.000000)" stroke="#FFFFFF" stroke-width="10">
            <polyline id="Triangle" stroke-linejoin="round" transform="translate(52.500000, 80.500000) scale(1, -1) translate(-52.500000, -80.500000) " points="38 100 52.5 61 67 100"></polyline>
            <polyline id="Rectangle-4" stroke-linejoin="round" transform="translate(108.000000, 80.500000) scale(-1, 1) translate(-108.000000, -80.500000) " points="95 61 121 61 121 81.7509766 121 100 95 100"></polyline>
            <path d="M96.4285714,80.5 L119.587296,80.5" id="Line-6"></path>
            <path d="M69.0746414,1.49142071 C30.5480529,7.24948769 1,40.4783896 1,80.6086091 C1,120.711811 30.5082804,153.922985 68.9968406,159.714131 M92.9979341,159.714917 C131.489049,153.925991 161,120.713626 161,80.6086091 C161,40.485549 131.462489,7.26134414 92.9459774,1.49450509" id="Oval-6"></path>
        </g>
    </g>
</svg>